<?xml version="1.0" encoding="UTF-8"?>
<svg xmlns="http://www.w3.org/2000/svg" xmlns:xlink="http://www.w3.org/1999/xlink" height="16px" viewBox="0 0 16 16" width="16px">
  <filter id="a" height="100%" width="100%" x="0%" y="0%">
    <feColorMatrix in="SourceGraphic" type="matrix" values="0 0 0 0 1 0 0 0 0 1 0 0 0 0 1 0 0 0 1 0"/>
  </filter>
  <mask id="b">
    <g filter="url(#a)">
      <path d="m 0 0 h 16 v 16 h -16 z" fill-opacity="0.3"/>
    </g>
  </mask>
  <clipPath id="c">
    <path d="m 0 0 h 1600 v 1200 h -1600 z"/>
  </clipPath>
  <mask id="d">
    <g filter="url(#a)">
      <path d="m 0 0 h 16 v 16 h -16 z" fill-opacity="0.05"/>
    </g>
  </mask>
  <clipPath id="e">
    <path d="m 0 0 h 1600 v 1200 h -1600 z"/>
  </clipPath>
  <mask id="f">
    <g filter="url(#a)">
      <path d="m 0 0 h 16 v 16 h -16 z" fill-opacity="0.05"/>
    </g>
  </mask>
  <clipPath id="g">
    <path d="m 0 0 h 1600 v 1200 h -1600 z"/>
  </clipPath>
  <mask id="h">
    <g filter="url(#a)">
      <path d="m 0 0 h 16 v 16 h -16 z" fill-opacity="0.05"/>
    </g>
  </mask>
  <clipPath id="i">
    <path d="m 0 0 h 1600 v 1200 h -1600 z"/>
  </clipPath>
  <mask id="j">
    <g filter="url(#a)">
      <path d="m 0 0 h 16 v 16 h -16 z" fill-opacity="0.05"/>
    </g>
  </mask>
  <clipPath id="k">
    <path d="m 0 0 h 1600 v 1200 h -1600 z"/>
  </clipPath>
  <mask id="l">
    <g filter="url(#a)">
      <path d="m 0 0 h 16 v 16 h -16 z" fill-opacity="0.05"/>
    </g>
  </mask>
  <clipPath id="m">
    <path d="m 0 0 h 1600 v 1200 h -1600 z"/>
  </clipPath>
  <mask id="n">
    <g filter="url(#a)">
      <path d="m 0 0 h 16 v 16 h -16 z" fill-opacity="0.05"/>
    </g>
  </mask>
  <clipPath id="o">
    <path d="m 0 0 h 1600 v 1200 h -1600 z"/>
  </clipPath>
  <mask id="p">
    <g filter="url(#a)">
      <path d="m 0 0 h 16 v 16 h -16 z" fill-opacity="0.3"/>
    </g>
  </mask>
  <clipPath id="q">
    <path d="m 0 0 h 1600 v 1200 h -1600 z"/>
  </clipPath>
  <mask id="r">
    <g filter="url(#a)">
      <path d="m 0 0 h 16 v 16 h -16 z" fill-opacity="0.5"/>
    </g>
  </mask>
  <clipPath id="s">
    <path d="m 0 0 h 1600 v 1200 h -1600 z"/>
  </clipPath>
  <g clip-path="url(#c)" mask="url(#b)" transform="matrix(1 0 0 1 -20 -296)">
    <path d="m 562.460938 212.058594 h 10.449218 c -1.183594 0.492187 -1.296875 2.460937 0 3 h -10.449218 z m 0 0" fill="#2e3436"/>
  </g>
  <g clip-path="url(#e)" mask="url(#d)" transform="matrix(1 0 0 1 -20 -296)">
    <path d="m 16 748 h 1 v 1 h -1 z m 0 0" fill="#2e3436" fill-rule="evenodd"/>
  </g>
  <g clip-path="url(#g)" mask="url(#f)" transform="matrix(1 0 0 1 -20 -296)">
    <path d="m 17 747 h 1 v 1 h -1 z m 0 0" fill="#2e3436" fill-rule="evenodd"/>
  </g>
  <g clip-path="url(#i)" mask="url(#h)" transform="matrix(1 0 0 1 -20 -296)">
    <path d="m 18 750 h 1 v 1 h -1 z m 0 0" fill="#2e3436" fill-rule="evenodd"/>
  </g>
  <g clip-path="url(#k)" mask="url(#j)" transform="matrix(1 0 0 1 -20 -296)">
    <path d="m 16 750 h 1 v 1 h -1 z m 0 0" fill="#2e3436" fill-rule="evenodd"/>
  </g>
  <g clip-path="url(#m)" mask="url(#l)" transform="matrix(1 0 0 1 -20 -296)">
    <path d="m 17 751 h 1 v 1 h -1 z m 0 0" fill="#2e3436" fill-rule="evenodd"/>
  </g>
  <g clip-path="url(#o)" mask="url(#n)" transform="matrix(1 0 0 1 -20 -296)">
    <path d="m 19 751 h 1 v 1 h -1 z m 0 0" fill="#2e3436" fill-rule="evenodd"/>
  </g>
  <g clip-path="url(#q)" mask="url(#p)" transform="matrix(1 0 0 1 -20 -296)">
    <path d="m 136 776 v 7 h 7 v -7 z m 0 0" fill="#2e3436"/>
  </g>
  <g clip-path="url(#s)" mask="url(#r)" transform="matrix(1 0 0 1 -20 -296)">
    <path d="m 219 758 h 3 v 12 h -3 z m 0 0" fill="#2e3436"/>
  </g>
  <path d="m 3.5 5 c -0.277344 0 -0.5 0.222656 -0.5 0.5 v 2.96875 c 0 1.96875 1.257812 3.625 3 4.25 v 1.28125 h -2 c -0.5625 0 -1 0.488281 -1 1 v 1 h 9 v -1 c 0 -0.585938 -0.476562 -1 -1 -1 h -2 v -1.28125 c 1.742188 -0.625 3 -2.28125 3 -4.25 v -2.96875 c 0 -0.277344 -0.222656 -0.5 -0.5 -0.5 s -0.5 0.222656 -0.5 0.5 c 0 0.070312 0.007812 0.128906 0.03125 0.1875 v 2.78125 c 0 1.964844 -1.578125 3.53125 -3.53125 3.53125 s -3.5 -1.566406 -3.5 -3.53125 v -2.96875 c 0 -0.277344 -0.222656 -0.5 -0.5 -0.5 z m 4 -4.011719 c 1.386719 0 2.5 1.113281 2.5 2.5 v 5.011719 c 0 1.386719 -1.113281 2.5 -2.5 2.5 s -2.5 -1.113281 -2.5 -2.5 v -5.011719 c 0 -1.386719 1.113281 -2.5 2.5 -2.5 z m 0 0" fill="#2e3436"/>
</svg>
