<?xml version="1.0" encoding="UTF-8"?>
<svg xmlns="http://www.w3.org/2000/svg" xmlns:xlink="http://www.w3.org/1999/xlink" height="16px" viewBox="0 0 16 16" width="16px">
  <filter id="a" height="100%" width="100%" x="0%" y="0%">
    <feColorMatrix in="SourceGraphic" type="matrix" values="0 0 0 0 1 0 0 0 0 1 0 0 0 0 1 0 0 0 1 0"/>
  </filter>
  <mask id="b">
    <g filter="url(#a)">
      <path d="m 0 0 h 16 v 16 h -16 z" fill-opacity="0.3"/>
    </g>
  </mask>
  <clipPath id="c">
    <path d="m 0 0 h 1600 v 1200 h -1600 z"/>
  </clipPath>
  <mask id="d">
    <g filter="url(#a)">
      <path d="m 0 0 h 16 v 16 h -16 z" fill-opacity="0.05"/>
    </g>
  </mask>
  <clipPath id="e">
    <path d="m 0 0 h 1600 v 1200 h -1600 z"/>
  </clipPath>
  <mask id="f">
    <g filter="url(#a)">
      <path d="m 0 0 h 16 v 16 h -16 z" fill-opacity="0.05"/>
    </g>
  </mask>
  <clipPath id="g">
    <path d="m 0 0 h 1600 v 1200 h -1600 z"/>
  </clipPath>
  <mask id="h">
    <g filter="url(#a)">
      <path d="m 0 0 h 16 v 16 h -16 z" fill-opacity="0.05"/>
    </g>
  </mask>
  <clipPath id="i">
    <path d="m 0 0 h 1600 v 1200 h -1600 z"/>
  </clipPath>
  <mask id="j">
    <g filter="url(#a)">
      <path d="m 0 0 h 16 v 16 h -16 z" fill-opacity="0.05"/>
    </g>
  </mask>
  <clipPath id="k">
    <path d="m 0 0 h 1600 v 1200 h -1600 z"/>
  </clipPath>
  <mask id="l">
    <g filter="url(#a)">
      <path d="m 0 0 h 16 v 16 h -16 z" fill-opacity="0.05"/>
    </g>
  </mask>
  <clipPath id="m">
    <path d="m 0 0 h 1600 v 1200 h -1600 z"/>
  </clipPath>
  <mask id="n">
    <g filter="url(#a)">
      <path d="m 0 0 h 16 v 16 h -16 z" fill-opacity="0.05"/>
    </g>
  </mask>
  <clipPath id="o">
    <path d="m 0 0 h 1600 v 1200 h -1600 z"/>
  </clipPath>
  <mask id="p">
    <g filter="url(#a)">
      <path d="m 0 0 h 16 v 16 h -16 z" fill-opacity="0.3"/>
    </g>
  </mask>
  <clipPath id="q">
    <path d="m 0 0 h 1600 v 1200 h -1600 z"/>
  </clipPath>
  <mask id="r">
    <g filter="url(#a)">
      <path d="m 0 0 h 16 v 16 h -16 z" fill-opacity="0.5"/>
    </g>
  </mask>
  <clipPath id="s">
    <path d="m 0 0 h 1600 v 1200 h -1600 z"/>
  </clipPath>
  <g clip-path="url(#c)" mask="url(#b)" transform="matrix(1 0 0 1 -160 -296)">
    <path d="m 562.460938 212.058594 h 10.449218 c -1.183594 0.492187 -1.296875 2.460937 0 3 h -10.449218 z m 0 0" fill="#2e3436"/>
  </g>
  <g clip-path="url(#e)" mask="url(#d)" transform="matrix(1 0 0 1 -160 -296)">
    <path d="m 16 748 h 1 v 1 h -1 z m 0 0" fill="#2e3436" fill-rule="evenodd"/>
  </g>
  <g clip-path="url(#g)" mask="url(#f)" transform="matrix(1 0 0 1 -160 -296)">
    <path d="m 17 747 h 1 v 1 h -1 z m 0 0" fill="#2e3436" fill-rule="evenodd"/>
  </g>
  <g clip-path="url(#i)" mask="url(#h)" transform="matrix(1 0 0 1 -160 -296)">
    <path d="m 18 750 h 1 v 1 h -1 z m 0 0" fill="#2e3436" fill-rule="evenodd"/>
  </g>
  <g clip-path="url(#k)" mask="url(#j)" transform="matrix(1 0 0 1 -160 -296)">
    <path d="m 16 750 h 1 v 1 h -1 z m 0 0" fill="#2e3436" fill-rule="evenodd"/>
  </g>
  <g clip-path="url(#m)" mask="url(#l)" transform="matrix(1 0 0 1 -160 -296)">
    <path d="m 17 751 h 1 v 1 h -1 z m 0 0" fill="#2e3436" fill-rule="evenodd"/>
  </g>
  <g clip-path="url(#o)" mask="url(#n)" transform="matrix(1 0 0 1 -160 -296)">
    <path d="m 19 751 h 1 v 1 h -1 z m 0 0" fill="#2e3436" fill-rule="evenodd"/>
  </g>
  <g clip-path="url(#q)" mask="url(#p)" transform="matrix(1 0 0 1 -160 -296)">
    <path d="m 136 776 v 7 h 7 v -7 z m 0 0" fill="#2e3436"/>
  </g>
  <g clip-path="url(#s)" mask="url(#r)" transform="matrix(1 0 0 1 -160 -296)">
    <path d="m 219 758 h 3 v 12 h -3 z m 0 0" fill="#2e3436"/>
  </g>
  <g fill="#2e3436">
    <path d="m 8.0625 0 c -0.453125 0.0507812 -0.882812 0.222656 -1.25 0.5 c -0.488281 0.371094 -0.8125 0.953125 -0.8125 1.6875 c -0.003906 0.265625 0.234375 0.507812 0.5 0.507812 s 0.503906 -0.242187 0.5 -0.507812 c 0 -0.449219 0.171875 -0.703125 0.4375 -0.90625 s 0.664062 -0.300781 1.0625 -0.28125 s 0.785156 0.152344 1.0625 0.40625 s 0.46875 0.585938 0.46875 1.125 c 0 2.164062 1.464844 3.507812 3 3.46875 c 0.855469 -0.023438 1.6875 -0.476562 2.25 -1.3125 l -0.5625 -1 c -0.375 0.914062 -1.066406 1.296875 -1.71875 1.3125 c -0.960938 0.023438 -1.96875 -0.730469 -1.96875 -2.46875 c 0 -0.792969 -0.335938 -1.445312 -0.8125 -1.875 s -1.082031 -0.6289062 -1.6875 -0.65625 c -0.152344 -0.0078125 -0.316406 -0.015625 -0.46875 0 z m 6.9375 1.96875 v 0.03125 v 0.125 l 0.78125 1.375 c 0.011719 -0.039062 0.019531 -0.082031 0.03125 -0.125 z m 0 0.375 c -0.007812 0.105469 -0.019531 0.214844 -0.03125 0.3125 l 0.71875 1.21875 c 0.023438 -0.0625 0.042969 -0.121094 0.0625 -0.1875 z m -0.0625 0.5 c -0.015625 0.089844 -0.042969 0.167969 -0.0625 0.25 l 0.65625 1.125 c 0.027344 -0.0625 0.066406 -0.125 0.09375 -0.1875 z m -0.09375 0.4375 c -0.023438 0.089844 -0.066406 0.167969 -0.09375 0.25 l 0.59375 1.03125 c 0.039062 -0.066406 0.089844 -0.117188 0.125 -0.1875 z m 0 0"/>
    <path d="m 5 4 c -1.109375 0 -2 0.890625 -2 2 v 2 h 3 v -4 z m 2 0 v 4 h 3 v -2 c 0 -1.109375 -0.890625 -2 -2 -2 z m -4 5 v 2.25 c 0 2.214844 1.5625 3.75 3.5 3.75 s 3.5 -1.535156 3.5 -3.75 v -2.25 z m 0 0"/>
  </g>
</svg>
