<?xml version="1.0" encoding="UTF-8" standalone="no"?>
<svg height="16px" width="16px" xmlns="http://www.w3.org/2000/svg">
    <g>
      <path d="m 11.2,12.095265 c -2.6666667,0 -2.6666667,0.533333 -2.6666667,0.533333 0,0.533333 0.5333334,0.533333 0.5333334,0.533333 h 4.2666663 c 0.533334,0 0.533334,-0.533333 0.533334,-0.533333 0,0 0,-0.533333 -2.666667,-0.533333 z m 0,0" id="path113" style="fill:#2e3436;stroke-width:1.06667" />
      <path d="m 8.7333333,2.5660974 c -1.2749995,0 -2.3333334,1.0583339 -2.3333334,2.3333334 v 3.8874998 c 0,1.2750004 1.0583339,2.3375014 2.3333334,2.3375014 H 13.666667 C 14.941666,11.124432 16,10.061931 16,8.7869306 V 4.8994308 C 16,3.6244313 14.941666,2.5660974 13.666667,2.5660974 Z m 0,2.1333334 h 4.9333337 c 0.129167,0 0.2,0.070833 0.2,0.2 v 3.8874998 c 0,0.129167 -0.07084,0.2041675 -0.2,0.2041675 H 8.7333333 c -0.1291669,0 -0.2,-0.075 -0.2,-0.2041675 V 4.8994308 c 0,-0.1291669 0.070833,-0.2 0.2,-0.2 z m 0,0" id="path115" style="fill:#2e3436;stroke-width:1.06667" />
      <path d="M 0.9749992,5.7660975 C 0.43333305,5.7660975 -3e-7,6.1994308 -3e-7,6.741097 v 3.383334 c 0,0.541667 0.43333335,0.975 0.9749995,0.975 h 3.3833345 c 0.5416662,0 0.9749995,-0.433333 0.9749995,-0.975 V 6.741097 c 0,-0.5416662 -0.4333333,-0.9749995 -0.9749995,-0.9749995 z M 1.0666664,7.8994309 H 4.2666665 V 10.032764 H 1.0666664 Z m 0,0" id="path119" style="fill:#2e3436;stroke-width:1.06667" />
    </g>
</svg>
