<?xml version="1.0" encoding="UTF-8"?>
<svg xmlns="http://www.w3.org/2000/svg" height="16px" viewBox="0 0 16 16" width="16px">
  <g fill="#222222">
    <path d="m 1 5 h 2.484375 l 2.96875 -3 l 0.546875 0.015625 v 12 h -0.476562 l -3.039063 -3.015625 h -2.484375 z m 0 0"/>
    <path d="m 8 5 v -1.421875 l 3.367188 -3.359375 c 0.40625 -0.410156 1.0625 -0.347656 1.414062 0.023438 c 0.332031 0.351562 0.375 0.988281 -0.03125 1.390624 l -3.359375 3.367188 z m 0 0"/>
    <path d="m 8 10.9375 v 1.421875 l 3.367188 3.359375 c 0.40625 0.410156 1.0625 0.34375 1.414062 -0.023438 c 0.332031 -0.351562 0.375 -0.988281 -0.03125 -1.390624 l -3.359375 -3.367188 z m 0 0"/>
    <path d="m 8 7 v 2 h 6 c 0.75 0 1 -0.5 1 -1 s -0.25 -1 -1 -1 z m 0 0"/>
  </g>
</svg>
