<?xml version="1.0" encoding="UTF-8"?>
<svg height="16px" viewBox="0 0 16 16" width="16px" xmlns="http://www.w3.org/2000/svg" xmlns:xlink="http://www.w3.org/1999/xlink">
    <filter id="a" height="100%" width="100%" x="0%" y="0%">
        <feColorMatrix in="SourceGraphic" type="matrix" values="0 0 0 0 1 0 0 0 0 1 0 0 0 0 1 0 0 0 1 0"/>
    </filter>
    <mask id="b">
        <g filter="url(#a)">
            <rect fill-opacity="0.5" height="16" width="16"/>
        </g>
    </mask>
    <clipPath id="c">
        <rect height="152" width="192"/>
    </clipPath>
    <path d="m 2 0 v 1 h -1 v 1 h -1 v -2 z m 14 2 h -1 v -1 h -1 v -1 h 2 z m -14 14 v -1 h -1 v -1 h -1 v 2 z m 14 -2 h -1 v 1 h -1 v 1 h 2 z m 0 0" fill="#241f31"/>
    <g clip-path="url(#c)" mask="url(#b)" transform="matrix(1 0 0 1 -168 -16)">
        <path d="m 19 221 v -10 h 10 m 80.015625 10 v -10 h -10 m 10 52.015625 v 10 h -10 m -80.015625 -10 v 10 h 10" fill="none" stroke="#ffffff" stroke-linecap="round" stroke-width="2" transform="matrix(1 0 0 1 8 -156)"/>
    </g>
    <g fill="#241f31">
        <path d="m 14.117188 3.582031 l -4.164063 0.003907 c -2.738281 0 -4.1875 -0.003907 -4.1875 -0.003907 c -0.382813 0 -0.691406 0.371094 -0.699219 0.738281 c 0 0 -0.015625 -0.300781 -0.015625 3.65625 l 0.003907 3.6875 c 0.050781 0.542969 0.375 0.726563 0.71875 0.757813 l 4.183593 -0.011719 h 4.132813 c 0.59375 0 0.773437 -0.398437 0.804687 -0.769531 v -7.238281 c 0 -0.515625 -0.332031 -0.820313 -0.777343 -0.820313 z m -13.011719 0.976563 v 6.875 h 0.203125 l 0.34375 -0.003906 l 1.5625 -1.703126 c 0.941406 -0.941406 1.707031 -1.734374 1.707031 -1.765624 s -0.75 -0.808594 -1.671875 -1.726563 l -1.527344 -1.671875 l -0.378906 -0.003906 z m 8.871093 0.253906 c 0.128907 0 0.253907 0.007812 0.382813 0.023438 c 1.742187 0.210937 2.988281 1.789062 2.785156 3.535156 l -0.007812 0.058594 c -0.234375 1.738281 -1.832031 2.960937 -3.570313 2.738281 c -1.660156 -0.226563 -2.863281 -1.699219 -2.757812 -3.371094 c 0.109375 -1.671875 1.492187 -2.976563 3.167968 -2.984375 z m 0 0"/>
        <path d="m 11.394531 8.191406 c -0.105469 0.78125 -0.824219 1.332032 -1.601562 1.230469 c -0.78125 -0.101563 -1.335938 -0.816406 -1.238281 -1.597656 c 0.101562 -0.78125 0.8125 -1.335938 1.59375 -1.242188 s 1.339843 0.804688 1.25 1.585938"/>
    </g>
</svg>
