<svg xmlns="http://www.w3.org/2000/svg" width="512" height="512" viewBox="0 0 135.467 135.467" xmlns:v="https://vecta.io/nano"><style><![CDATA[.B{font-family:sans-serif}.C{word-spacing:0px}]]></style><g fill="#241f31"><path d="M101 70.028c-1.255 9.331-9.817 15.892-19.153 14.678S65.911 74.962 67.083 65.62s9.673-15.98 19.02-14.85 16.023 9.601 14.936 18.953" paint-order="stroke fill markers"/><path d="M118.26 31.229s-1.584.032-34.414.032l.001.001c-22.602 0-34.569-.008-34.569-.008-3.176 0-5.71 3.069-5.789 6.074 0 0-.116-2.484-.116 30.197l.04 30.462c.406 4.489 3.073 6.013 5.941 6.252l34.527-.08h34.157c4.89-.003 6.386-3.286 6.643-6.355V67.532l-.009-29.508c0-4.263-2.748-6.795-6.412-6.795zM10.785 39.322V67.71v28.386h1.67l2.864-.037 12.905-14.077c7.755-7.764 14.101-14.318 14.101-14.567s-6.214-6.671-13.81-14.272L15.892 39.344l-3.147-.021zm73.161.965a27.46 27.46 0 0 1 3.399.198c15.009 1.814 25.729 15.417 23.983 30.434l-.062.49c-2.016 14.983-15.763 25.518-30.755 23.57s-25.59-15.648-23.708-30.649c1.718-13.698 13.338-23.991 27.142-24.044zm-.028 6.203c-57.936-32.984-28.968-16.492 0 0z"/><path d="M16.985.069v8.458H8.527v8.458H.069V.069zm118.412 16.916h-8.458V8.527h-8.458V.069h16.916zM16.985 135.397v-8.458H8.527v-8.458H.069v16.916zm118.412-16.916h-8.458v8.458h-8.458v8.458h16.916z" paint-order="normal"/></g></svg>