<svg xmlns="http://www.w3.org/2000/svg" xmlns:xlink="http://www.w3.org/1999/xlink" height="128" width="128" xmlns:v="https://vecta.io/nano"><style><![CDATA[.B{font-family:sans-serif}.C{word-spacing:0px}.D{fill:#000}.E{font-size:29.219px}.F{font-size:9.665px}]]></style><defs><linearGradient y2="116" x2="120" y1="116" x1="8" id="A" xlink:href="#F"><stop offset="0" stop-color="#77767b"/><stop offset=".036" stop-color="#c0bfbc"/><stop offset=".071" stop-color="#9a9996"/><stop offset=".929" stop-color="#9a9996"/><stop offset=".964" stop-color="#c0bfbc"/><stop offset="1" stop-color="#77767b"/></linearGradient><linearGradient id="B" x1="-73.969" y1="139.066" x2="13.267" y2="211.401" gradientTransform="matrix(0.92065185,0,0,0.7980047,-22.069442,48.613294)" xlink:href="#F"><stop offset="0" stop-color="#d628f8"/><stop offset="1" stop-color="#d628f8" stop-opacity="0"/></linearGradient><linearGradient id="C" x1="-79.012" y1="136.362" x2="4.448" y2="204.545" gradientTransform="matrix(0.92065185,0,0,0.7980047,93.641597,-318.01154)" xlink:href="#F"><stop offset="0" stop-color="#ff60b3"/><stop offset="1" stop-color="#ffbee0"/></linearGradient><linearGradient id="D" x1="11.829" y1="-150.27" x2="95.886" y2="-206.682" gradientTransform="matrix(0.92065185,0,0,0.7980047,22.069404,-48.613321)" xlink:href="#F"><stop offset="0" stop-color="#ff0207"/><stop offset="1" stop-color="#ff0207" stop-opacity="0"/></linearGradient><linearGradient id="E" x1="-12.118" y1="156.742" x2="-103.1" y2="213.911" xlink:href="#F"><stop offset="0" stop-color="#ffb4b5"/><stop offset="1" stop-color="#ff7879"/></linearGradient><linearGradient id="F" gradientUnits="userSpaceOnUse"/></defs><rect width="112" height="76" x="8" y="40" rx="8" fill="url(#A)" paint-order="normal"/><rect rx="8" y="28" x="8" height="84" width="112" fill="#deddda" paint-order="normal"/><rect y="32" x="12" height="76" width="104" rx="4" fill="#241f31" paint-order="normal"/><g transform="translate(121.856 -113.312)"><path d="M-105.856 149.312h96v68h-96z" fill="url(#E)" paint-order="stroke markers fill"/><path d="M-105.856 149.312h96v68h-96z" opacity=".5" fill="url(#B)" paint-order="stroke fill markers"/><g transform="scale(-1)"><path d="M9.856-217.312h96v68h-96z" opacity=".5" fill="url(#C)" paint-order="stroke fill markers"/><path d="M9.856-217.312h96v68h-96z" opacity=".5" fill="url(#D)" paint-order="stroke fill markers"/></g></g><path d="M19 49V39h10m80.014 10V39h-10m10 52.014v10h-10M19 91.014v10h10" opacity=".5" fill="none" stroke="#fff" stroke-width="2" stroke-linecap="round"/><g fill="#fff"><path d="M78.642 59.42h.001l-9.973.009h0c-6.55 0-10.018-.002-10.018-.002-.92 0-1.655.889-1.678 1.76 0 0-.034-.72-.034 8.751l.011 8.828c.118 1.301.891 1.743 1.722 1.812l10.006-.023h9.899c1.417-.001 1.851-.952 1.925-1.842v-8.772L80.5 61.39c0-1.235-.796-1.969-1.858-1.969zm-31.146 2.346v8.227 8.226h.484l.83-.011 3.74-4.079c2.247-2.25 4.086-4.149 4.086-4.221s-1.801-1.933-4.002-4.136l-3.658-3.999-.912-.006zm21.235.601c.305 0 .61.018.913.055a7.64 7.64 0 0 1 6.67 8.464l-.017.137a7.64 7.64 0 0 1-8.553 6.555 7.64 7.64 0 0 1 .987-15.21z"/><path d="M72.721 70.541a4.03 4.03 0 0 1-4.512 3.458 4.03 4.03 0 0 1-3.478-4.497 4.03 4.03 0 0 1 4.481-3.498 4.03 4.03 0 0 1 3.519 4.465" paint-order="stroke fill markers"/></g></svg>